<mxfile host="app.diagrams.net" modified="2020-06-26T04:53:03.023Z" agent="5.0 (Macintosh; Intel Mac OS X 10_15_4) AppleWebKit/605.1.15 (KHTML, like Gecko) Version/13.1 Safari/605.1.15" etag="Gl6wuJb8MVfOg3J8iler" version="13.3.5" type="github">
  <diagram id="4gfx7CMbKfppdH-xQKFO" name="Page-1">
    <mxGraphModel dx="2066" dy="1104" grid="1" gridSize="10" guides="1" tooltips="1" connect="1" arrows="1" fold="1" page="1" pageScale="1" pageWidth="827" pageHeight="1169" math="0" shadow="0">
      <root>
        <mxCell id="0" />
        <mxCell id="1" parent="0" />
        <mxCell id="oAXW9YuFdEdeSQZmA8J5-1" value="" style="rounded=1;whiteSpace=wrap;html=1;" vertex="1" parent="1">
          <mxGeometry x="350" y="530" width="120" height="60" as="geometry" />
        </mxCell>
        <mxCell id="oAXW9YuFdEdeSQZmA8J5-4" value="" style="edgeStyle=orthogonalEdgeStyle;rounded=0;orthogonalLoop=1;jettySize=auto;html=1;" edge="1" parent="1" source="oAXW9YuFdEdeSQZmA8J5-2" target="oAXW9YuFdEdeSQZmA8J5-3">
          <mxGeometry relative="1" as="geometry" />
        </mxCell>
        <mxCell id="oAXW9YuFdEdeSQZmA8J5-6" value="" style="edgeStyle=orthogonalEdgeStyle;rounded=0;orthogonalLoop=1;jettySize=auto;html=1;" edge="1" parent="1" source="oAXW9YuFdEdeSQZmA8J5-2" target="oAXW9YuFdEdeSQZmA8J5-5">
          <mxGeometry relative="1" as="geometry" />
        </mxCell>
        <mxCell id="oAXW9YuFdEdeSQZmA8J5-8" value="" style="edgeStyle=orthogonalEdgeStyle;rounded=0;orthogonalLoop=1;jettySize=auto;html=1;" edge="1" parent="1" source="oAXW9YuFdEdeSQZmA8J5-2" target="oAXW9YuFdEdeSQZmA8J5-7">
          <mxGeometry relative="1" as="geometry" />
        </mxCell>
        <mxCell id="oAXW9YuFdEdeSQZmA8J5-10" value="" style="edgeStyle=orthogonalEdgeStyle;rounded=0;orthogonalLoop=1;jettySize=auto;html=1;" edge="1" parent="1" source="oAXW9YuFdEdeSQZmA8J5-2" target="oAXW9YuFdEdeSQZmA8J5-9">
          <mxGeometry relative="1" as="geometry" />
        </mxCell>
        <mxCell id="oAXW9YuFdEdeSQZmA8J5-2" value="" style="rounded=0;whiteSpace=wrap;html=1;" vertex="1" parent="1">
          <mxGeometry x="350" y="530" width="120" height="60" as="geometry" />
        </mxCell>
        <mxCell id="oAXW9YuFdEdeSQZmA8J5-9" value="" style="rounded=0;whiteSpace=wrap;html=1;" vertex="1" parent="1">
          <mxGeometry x="350" y="390" width="120" height="60" as="geometry" />
        </mxCell>
        <mxCell id="oAXW9YuFdEdeSQZmA8J5-7" value="" style="rounded=0;whiteSpace=wrap;html=1;" vertex="1" parent="1">
          <mxGeometry x="150" y="530" width="120" height="60" as="geometry" />
        </mxCell>
        <mxCell id="oAXW9YuFdEdeSQZmA8J5-5" value="" style="rounded=0;whiteSpace=wrap;html=1;" vertex="1" parent="1">
          <mxGeometry x="350" y="670" width="120" height="60" as="geometry" />
        </mxCell>
        <mxCell id="oAXW9YuFdEdeSQZmA8J5-3" value="" style="rounded=0;whiteSpace=wrap;html=1;" vertex="1" parent="1">
          <mxGeometry x="550" y="530" width="120" height="60" as="geometry" />
        </mxCell>
      </root>
    </mxGraphModel>
  </diagram>
</mxfile>
